<svg width="407" height="724" viewBox="0 0 407 724" fill="none" xmlns="http://www.w3.org/2000/svg">
<g style="mix-blend-mode:multiply" clip-path="url(#clip0_5_9)">
<path d="M252.337 540.056C350.554 441.676 350.554 282.172 252.337 183.793C154.12 85.4136 -5.12092 85.4136 -103.338 183.793C-201.555 282.172 -201.555 441.676 -103.338 540.056C-5.12092 638.435 154.12 638.435 252.337 540.056Z" fill="#600B18"/>
<g style="mix-blend-mode:multiply" opacity="0.2">
<g style="mix-blend-mode:multiply" opacity="0.2">
<path d="M166.151 132.501C167.982 133.258 169.973 134.114 173.931 135.821C175.25 136.413 176.955 137.184 178.372 137.843C172.157 134.885 165.804 132.182 159.313 129.735C162.662 131.071 164.325 131.734 166.151 132.501Z" fill="#212121"/>
</g>
<g style="mix-blend-mode:multiply" opacity="0.2">
<path d="M303.014 357.972C302.808 355.869 302.518 353.016 302.315 350.895C301.93 355.038 301.615 358.316 296.197 359.459C294.507 352.23 290.178 345.76 289.999 338.093C290.563 337.623 291.305 336.992 291.868 336.509C295.455 340.642 295.742 346.559 299.508 350.579C300.183 350.278 301.062 349.85 301.737 349.545C301.916 348.9 302.147 348.031 302.315 347.386C304.414 352.7 304.414 352.756 313.94 355.098C313.419 288.881 287.389 228.749 245.208 184.09C225.733 165.296 203.358 149.774 178.946 138.12C178.76 138.017 178.568 137.925 178.372 137.843L174.082 135.94C184.664 141.198 184.993 141.352 185.819 141.777C179.87 139.26 174.138 136.168 168.171 133.64C172.048 135.393 196.238 146.484 214.681 159.276C211.59 157.291 208.511 155.255 205.417 153.274C211.15 157.733 217.473 161.424 222.611 166.64C209.253 158.133 196.843 148.139 182.768 140.732C177.546 138.327 172.475 135.589 167.114 133.465C176.213 138.313 195.083 148.402 202.229 152.917C199.205 151.637 199.205 151.637 185.147 145.264C199.055 153.495 199.055 153.495 201.246 155.244C199.79 154.459 197.865 153.386 196.465 152.507C197.087 153.88 197.958 155.125 199.034 156.18C197.661 155.496 196.338 154.715 195.076 153.842C194.705 156.128 194.554 157.064 199.625 162.185C194.841 160.902 192.122 156.345 187.653 154.599C191.709 159.335 197.358 162.185 201.729 166.546C201.095 166.479 200.245 166.395 199.629 166.342C199.545 168.929 199.545 168.929 206.019 175.106C203.338 174.927 203.338 174.927 199.37 172.477C200.77 174.654 202.985 176.056 204.619 178.026C204.066 177.956 204.066 177.956 183.121 162.676C194.421 166.532 194.421 166.532 194.915 166.584L195.23 164.341C191.38 159.812 153.532 138.254 153.024 149.541L155.824 192.384C156.017 193.169 160.787 211.643 167.905 208.327C170.229 207.25 170.355 204.362 172.304 202.984C183.296 218.058 185.91 221.651 186.883 221.749C188.742 217.756 188.741 217.756 191.16 216.957C189.76 213.452 187.916 208.726 186.512 205.186C187.062 204.776 187.779 204.211 188.329 203.784C187.051 194.571 176.713 188.598 179.202 178.068C175.877 173.22 175.877 173.22 174.432 169.725L176.3 168.582C185.539 173.525 183.352 180.339 182.418 183.242C191.751 197.642 194.264 201.526 201.603 196.156C203.062 196.471 204.861 197.477 206.058 198.357C203.541 200.811 200.024 200.026 197.109 201.162C197.729 206.472 203.706 207.864 205.316 212.449L204.462 214.033C203.532 212.699 202.39 211.527 201.081 210.563C200.423 210.686 199.541 210.865 198.883 211.005C198.992 214.458 201.372 218.717 202.869 221.836C202.25 222.965 201.82 224.77 201.991 226.064C200.48 225.546 199.025 224.877 197.648 224.066C197.043 224.315 196.248 224.658 195.639 224.907C193.151 231.266 180.3 228.171 178.568 223.856C176.797 219.477 176.118 214.77 174.267 210.405C172.647 212.158 172.647 212.158 177.018 227.873C167.684 233.173 168.969 248.166 156.43 250.521C154.106 254.377 148.73 252.274 146.232 255.779C150.12 263.393 165.322 266.821 159.712 277.488C152.828 278.852 145.528 275.438 138.865 279.294C138.137 283.724 139.316 289.782 139.827 294.258C138.917 295.439 137.903 297.301 137.752 298.787C138.658 299.267 139.852 299.888 140.734 300.368C140.884 302.229 141.021 304.115 141.147 306.001C145.528 306.138 147.757 313.24 152.842 310.295C156.951 307.901 162.407 308.974 165.98 305.174C171.121 299.709 170.97 291.531 175.779 285.894C175.6 283.693 175.299 281.667 174.97 279.644C191.324 275.473 191.324 275.473 191.737 275.087C219.034 298.696 216.2 300.554 203.954 302.482C206.635 304.396 210.222 306.944 212.903 308.844C212.161 303.586 219.115 298.71 214.138 293.329L215.941 291.927C216.49 292.257 217.204 292.698 217.753 293.042C216.997 289.049 212.476 287.906 211.185 284.313C210.579 284.534 209.785 284.836 209.19 285.042C204.269 281.341 200.696 275.105 199.006 271.722C199.954 270.66 201.233 269.951 202.635 269.71C216.255 282.722 216.255 282.722 218.838 284.303C221.988 298.044 232.487 307.733 232.599 307.789C233.212 306.451 233.454 304.973 233.299 303.509C236.308 304.182 236.308 304.182 238.121 303.81C236.392 302.531 233.75 300.589 230.331 294.752C230.947 294.616 231.787 294.437 232.406 294.311C232.852 292.919 232.852 291.422 232.406 290.031C242.835 293.031 239.454 307.431 249.46 310.762C250.561 309.599 251.384 308.202 251.868 306.674C255.756 311.866 256.813 311.137 260.732 308.465C267.948 312.073 262.503 330.423 258.849 331.251C257.425 331.567 255.959 331.656 254.506 331.514C254.394 331.415 254.286 331.307 254.156 331.209C254.256 331.303 254.348 331.405 254.433 331.514C245.54 330.672 238.394 321.986 228.746 324.464C228.126 326.143 228.126 326.143 227.976 332.379L225.9 333.757C218.768 331.941 199.653 320.885 199.513 320.787C199.513 303.866 199.513 303.866 177.578 307.817C152.314 312.307 152.314 312.307 151.964 312.157C149.794 313.909 148.324 316.3 146.494 318.365L145.794 319.013H145.766L113.073 368.846C117.528 377.96 117.528 377.96 113.129 394.316C109.829 406.526 135.806 427.548 136.065 427.754C138.361 429.507 141.605 432.217 144.464 432.41C145.29 432.462 146.319 431.912 147.117 431.709C152.286 430.334 174.603 425.777 174.659 425.777C182.124 425.777 187.937 431.505 195.345 431.694C194.995 440.963 189.847 450.007 194.026 459.492C197.777 468 197.214 473.286 195.947 481.201C194.519 490.315 186.89 496.373 184.335 504.933C182.533 510.924 185.228 517.146 183.387 523.133C180.678 531.897 180.762 541.333 176.678 549.718C176.941 550.296 177.298 551.068 177.574 551.646C195.867 547.439 195.867 547.439 203.097 541.624C214.422 532.552 247.192 496.632 248.917 494.445C256.834 484.367 254.73 470.822 260.75 460.092C267.98 447.167 281.009 438.709 287.606 425.29C292.155 416.081 292.995 410.974 292.995 404.766C287.291 409.915 284.39 410.287 280.722 410.725C280.529 409.197 280.239 407.174 279.98 405.66C303.714 383.138 319.382 368.282 303.014 357.972Z" fill="#212121"/>
</g>
<g style="mix-blend-mode:multiply" opacity="0.2">
<path d="M161.164 234.007H157.287C155.866 229.149 153.997 227.47 151.877 225.92C150.666 225.033 150.666 225.033 147.327 219.442C144.076 220.69 144.461 218.299 144.951 215.278C145.385 212.593 145.497 211.702 145.031 210.85C143.827 208.646 141.553 213.655 139.806 211.867C139.505 211.555 139.456 211.324 139.848 210.297C140.356 208.894 140.853 206.809 139.295 204.933C135.278 206.104 134.844 207.191 135.712 213.886C135.95 215.691 136.114 216.34 137.756 216.736C139.155 217.087 139.26 217.265 139.596 217.9C140.559 219.716 139.946 221.892 140.916 223.701C141.192 224.269 141.537 224.801 141.941 225.286C145.546 224.609 146.424 226.236 146.711 226.768C146.711 226.8 148.345 230.074 148.251 230.582C147.988 231.985 146.151 231.077 145.686 232.24C145.315 233.18 145.686 234.298 146.078 235.486C146.232 235.946 146.428 236.57 146.078 236.84C145.423 237.341 143.666 236.517 143.859 237.611C144.209 239.686 146.267 240.366 147.359 241.817C146.932 242.168 146.526 242.518 142.788 248.477C147.163 245.771 150.347 245.028 160.724 244.289C162.823 244.138 163.408 243.629 162.473 242.771C162.032 242.203 161.112 241.586 161.007 240.874C160.657 238.627 161.203 236.401 161.179 234.158C161.168 234.119 161.164 234.056 161.164 234.007Z" fill="#212121"/>
</g>
<g style="mix-blend-mode:multiply" opacity="0.2">
<path d="M133.475 222.226C132.93 222.275 131.645 222.383 131.519 223.754C131.372 225.37 133.024 226.372 132.947 227.96C131.701 228.875 130.172 228.339 128.828 228.774C128.352 228.928 127.236 229.292 127.568 230.618C128.447 234.091 130.242 233.029 131.012 232.577C131.593 232.227 131.743 232.227 131.813 232.577C131.813 232.595 131.852 234.912 129.993 238.393C129.696 238.957 129.433 239.444 129.594 239.837C129.944 240.71 131.918 242 132.191 242.115C132.294 242.18 132.414 242.212 132.535 242.207C132.656 242.202 132.773 242.16 132.87 242.087C133.657 241.386 133.524 240.201 134.305 239.514C135.222 238.701 136.597 238.866 137.49 238C137.801 237.667 138.053 237.283 138.235 236.864C138.336 236.629 139.183 234.442 137.535 229.818C138.371 228.416 138.791 227.687 138.844 226.762C138.966 224.739 135.743 222.341 133.475 222.226Z" fill="#212121"/>
</g>
<g style="mix-blend-mode:multiply" opacity="0.2">
<path d="M104.579 171.537C103.242 163.556 95.2387 167.015 94.8992 167.17C93.9368 167.597 92.88 167.766 91.9491 168.27C91.1267 168.716 90.5947 169.543 89.7443 169.953C89.5208 170.038 89.2765 170.053 89.0444 169.995C88.6583 169.919 88.3083 169.717 88.0497 169.42C87.7912 169.123 87.6388 168.748 87.6165 168.354C87.4276 166.602 87.1406 166.269 85.4503 164.982C82.7346 165.116 84.4004 167.173 85.4783 168.537C84.7925 168.232 84.0431 168.099 83.2945 168.148C81.7372 168.316 81.1003 170.044 81.6497 170.549C81.9997 170.864 82.9935 170.773 83.879 170.693C84.8378 170.601 85.8177 170.552 86.3287 170.97C86.9551 171.474 87.4835 173.956 83.7845 174.037C85.9192 174.787 87.3261 175.674 87.634 176.473C88.187 177.837 86.2587 178.047 85.7792 178.99C85.7913 179.061 85.8137 179.129 85.8457 179.193C86.0872 179.481 87.2246 179.463 88.4285 179.446C90.6297 179.414 92.257 181.079 94.3218 181.451C95.3402 181.633 96.4916 181.84 97.7514 181.321C98.6884 180.945 99.5457 180.394 100.278 179.698C101.36 178.604 101.937 177.136 103.001 176.028C103.379 175.632 104.051 176.003 104.401 175.506C104.628 175.176 104.842 173.318 104.544 171.537H104.579Z" fill="#212121"/>
</g>
<g style="mix-blend-mode:multiply" opacity="0.2">
<path d="M265.667 486.13C263.567 487.953 262.629 490.624 260.862 492.689C258.762 495.142 256.9 496.453 254.853 496.895C253.484 497.2 252.302 497.466 251.427 498.648C251.248 498.886 251.031 499.209 250.874 499.457C249.026 502.374 248.273 505.816 246.394 508.712C244.788 511.187 242.226 512.862 240.774 515.463C236.116 523.81 236.256 525.194 236.312 525.713C241.491 526.737 260.942 497.526 263.465 492.902C265.618 488.966 266.475 486.631 266.013 485.962C265.887 485.994 265.77 486.051 265.667 486.13Z" fill="#212121"/>
</g>
<g style="mix-blend-mode:multiply" opacity="0.2">
<path d="M123.4 119.815C128.205 121.217 128.205 121.217 151.614 129.89C157.003 131.891 161.763 135.148 166.876 137.679C178.488 143.414 179.614 143.55 181.858 143.817C170.557 138.625 159.765 132.375 148.233 127.667C143.796 125.855 132.261 121.375 120.978 118.949C119.39 118.599 116.019 117.898 114.634 117.74C117.895 118.602 121.318 118.792 124.495 120.022C124.128 119.955 123.768 119.878 123.4 119.815Z" fill="#212121"/>
</g>
<g style="mix-blend-mode:multiply" opacity="0.2">
<path d="M2.80331 446.33C-2.5826 443.508 -0.157379 436.36 -4.5459 432.991C-9.79532 428.967 -17.106 431.137 -22.3414 427.064C-24.6897 425.234 -26.9189 423.264 -29.2252 421.385C-39.9725 412.622 -54.153 411.009 -65.6212 403.774C-70.2197 405.527 -73.8628 409.695 -79.3397 409.26C-80.2356 415.475 -80.2356 415.475 -82.3949 417.718C-84.5751 415.23 -84.5751 415.23 -95.2455 416.877C-96.5578 415.349 -96.5578 415.349 -100.376 393.98C-104.267 392.206 -108.95 394.043 -112.625 391.288C-112.016 384.698 -110.857 378.174 -110.133 371.594C-116.044 367.237 -116.891 379.657 -121.825 381.897C-127.284 384.393 -144.009 368.965 -126.046 336.992C-117.006 338.672 -117.006 338.672 -115.323 337.999C-115.127 336.523 -114.231 334.553 -113.132 333.554C-108.96 335.362 -108.96 335.362 -99.8825 335.359C-98.0067 341.585 -100.183 348.371 -97.2437 354.446L-93.8386 355.221C-95.9769 337.725 -95.9769 337.725 -71.8225 294.391C-71.7385 294.244 -61.7331 278.887 -48.0251 273.026C-47.8327 272.258 -47.5737 271.238 -47.3812 270.47L-47.3427 270.681C-45.6209 270.057 -44.0881 269.051 -42.4433 268.28C-45.0645 272.756 -45.0645 272.756 -44.7145 276.654C-33.9322 272.952 -30.3661 270.8 -27.3039 266.176C-27.5349 265.331 -27.8463 264.206 -28.0773 263.372C-30.1771 264.813 -31.7484 266.895 -33.9252 268.248C-36.2979 267.081 -38.2647 265.24 -40.6969 264.171C-40.2245 258.244 -40.2245 258.244 -41.0469 256.053C-39.4616 255.443 -37.3653 254.318 -36.2524 253.031C-36.6479 252.383 -37.1728 251.52 -37.5718 250.875C-41.7713 251.096 -44.284 251.226 -55.2833 261.574C-43.2027 247.903 -39.0136 245.719 -38.9751 245.701L-14.2153 242.466C-17.274 247.478 -21.0571 254.339 -23.9758 259.432C-8.05602 258.447 -8.05602 258.447 -5.91075 253.448L-7.2406 250.356C-12.609 250.865 -12.609 250.865 -14.2853 250.097C-9.30887 242.154 -12.952 232.889 -10.3798 224.581C-22.8664 220.157 -15.4367 206.43 -20.3957 198.291C-23.4053 200.667 -24.6722 204.723 -28.2908 206.511C-29.7237 205.771 -31.0921 204.913 -32.3819 203.945L-28.6408 193.334C-31.01 192.086 -31.01 192.086 -32.7213 187.056C-43.7626 187.964 -46.0479 199.093 -53.1451 204.604C-52.8826 207.503 -52.3892 212.898 -55.8258 219.6C-55.9308 219.807 -66.5031 240.159 -71.8645 241.109C-73.5268 238.14 -73.5898 238.024 -74.0483 233.264C-72.9984 230.183 -71.5986 226.071 -70.5662 222.986C-74.2478 222.92 -74.2478 222.92 -78.3773 213.918C-79.9262 213.42 -81.5567 213.227 -83.1788 213.35C-79.1997 206.921 -79.1997 206.921 -79.2032 204.586L-81.5935 204.401C-75.3396 187.904 -57.8661 184.041 -46.5973 173.202L-47.8047 171.159C-20.4586 154.031 -20.4586 154.031 -17.582 151.178C-17.582 150.27 -17.582 149.075 -17.582 148.153C-24.5427 151.111 -28.1683 159.156 -36.2384 160.422C-29.6277 154.487 -29.6276 154.487 -28.0318 152.079C-29.6292 153.166 -31.295 154.148 -33.0188 155.02C-26.317 149.804 -20.6196 143.452 -14.0578 138.085C-24.1857 142.162 -30.6355 151.564 -40.3225 156.278C-33.9812 149.969 -33.9812 149.969 -33.3477 148.819C-38.9891 151.49 -42.8282 156.969 -48.97 158.858L-50.4259 157.046L-48.6481 153.996C-56.1022 159.051 -58.447 158.448 -60.8967 157.807C-57.0016 155.353 -57.0016 155.353 -52.2562 148.542C-54.5029 149.706 -56.7077 150.94 -58.9439 152.117C-51.6332 146.912 -51.6332 146.912 -50.8948 146.344C-51.1713 146.453 -51.1713 146.453 -64.8373 153.705C-60.7148 150.933 -57.7506 149.113 -56.1967 148.177C-74.7394 159.054 -91.8152 172.265 -107.008 187.487C-110.395 190.88 -113.684 194.367 -116.873 197.947L-116.66 197.758C-126.371 209.676 -145.5 240.173 -143.901 246.097L-156.583 276.707C-159.194 282.974 -160.275 285.568 -161.777 291.124C-165.525 304.988 -158.505 318.817 -158.687 332.656C-158.508 332.369 -158.337 332.085 -158.123 331.797C-156.744 346.317 -146.574 378.679 -146.504 378.826C-140.859 388.669 -127.606 387.348 -121.223 396.118C-113.212 407.335 -100.421 413.172 -91.0284 422.836C-87.7178 418.798 -87.7178 418.798 -85.9575 418.202C-82.2549 424.312 -79.0562 429.588 -83.5078 458.907C-85.513 472.119 -64.7253 488.352 -48.0181 501.392C-29.4912 515.856 -34.3696 540.52 -23.3493 558.247C-14.2888 572.801 -13.7359 573.173 -11.4121 574.722C-12.2664 573.181 -12.9382 571.546 -13.4139 569.849C11.3389 604.013 24.9104 604.031 29.5964 602.45L3.34924 579.514L5.58899 578.813C4.05966 572.503 4.05966 572.503 0.899506 571.599C0.899506 570.862 0.882004 569.884 0.875 569.145C1.48044 568.766 2.27487 568.261 2.8873 567.879L1.80241 565.482L3.05878 563.456C4.69177 563.381 6.31494 563.162 7.90924 562.8C9.75003 559.414 9.82355 559.295 7.61528 554.836L5.33704 554.1C5.29854 553.318 5.24953 552.273 5.21103 551.492C8.92412 552.925 9.84102 552.287 11.7133 549.942C11.8043 549.827 20.5639 537.701 18.2471 529.033C15.2934 517.987 31.8956 520.013 36.1547 512.711C36.2841 512.491 50.916 475.863 51.2695 472.897C51.819 467.018 49.7717 464.75 48.7848 463.66L2.80331 446.33Z" fill="#212121"/>
</g>
<g style="mix-blend-mode:multiply" opacity="0.2">
<path d="M81.3662 134.562C79.6409 131.506 80.2883 131.267 81.4677 130.836C81.9471 129.785 81.2507 128.831 81.2192 127.822C81.4747 127.562 81.8211 127.222 82.0801 126.966C81.2367 125.287 80.9742 123.352 79.8193 121.81C78.8115 120.467 77.0756 120.057 75.9698 118.837C76.4072 118.136 76.5752 118.094 77.8981 117.821C77.8176 117.701 77.7196 117.54 77.6321 117.424C77.2576 117 70.8638 113.698 70.8253 113.698C52.3544 113.698 41.4496 119.324 40.5082 121.102C41.9675 120.429 43.7803 119.591 45.2431 121.379C30.6672 140.069 30.6672 140.069 30.8772 140.718C32.3015 139.789 32.774 137.651 34.8668 137.563C34.0269 139.992 34.9368 142.684 33.6769 145.054C31.6331 145.461 30.6567 142.975 28.676 143.203C28.4275 144.002 28.4275 144.002 32.3086 147.974C32.0041 150.565 28.9139 153.909 26.9156 154.421C25.4213 154.803 23.1676 155.377 19.8569 163.121C15.4754 173.371 20.0354 192.892 20.0914 193.061C20.1836 193.249 20.3381 193.4 20.5288 193.488C22.4501 194.414 24.3784 192.437 26.2962 193.488C26.5587 193.632 26.5237 194.189 26.4677 194.48C25.8658 197.572 30.1703 199.272 31.7171 198.659C34.7163 197.474 35.6052 194 37.2185 187.694C38.1984 183.838 38.6184 183.33 39.7102 182.723C40.9176 182.047 41.957 181.461 42.3035 180.799C42.6779 180.098 42.7794 179.891 42.7164 177.717C42.6219 174.521 43.8118 172.912 51.049 169.683C54.4611 168.162 55.1471 167.597 56.8024 166.237C57.2083 165.887 57.7053 165.403 58.0972 165.049C61.4849 161.992 62.2968 161.267 62.9127 160.383C63.7561 159.191 63.1262 157.519 64.2146 156.408C64.582 156.033 65.1175 155.973 66.8323 156.121C75.1824 156.85 80.5858 151.111 82.5211 148.612C85.6637 144.574 81.4187 134.654 81.3662 134.562Z" fill="#212121"/>
</g>
</g>
<path d="M282.983 398.992C281.068 392.206 278.57 389.878 277.075 388.497C277.985 380.628 274.874 377.501 273.376 375.997C274.545 370.308 275.077 367.71 266.954 345.535C264.2 338.016 268.354 341.223 268.407 341.297C268.459 341.371 274.125 350.036 273.887 355.473C274.587 356.202 275.55 357.198 276.505 359.974C277.46 362.75 276.704 365.649 277.506 368.387C277.6 368.709 277.975 369.011 278.178 369.277C278.794 370.094 280.921 373.284 282.328 379.958C283.336 384.747 283.343 385.945 283.399 400.591C283.277 400.107 283.119 399.455 282.983 398.975V398.992ZM265.625 341.896C263.703 336.94 260.795 330.416 257.852 327.479C261.562 330.725 265.166 340.554 265.852 342.489C265.782 342.314 265.695 342.075 265.625 341.896ZM326 361.926C326 253.991 258.244 161.905 163.019 126.037C169.707 128.705 169.707 128.705 177.641 132.126C179.153 132.799 181.14 133.711 182.656 134.419L177.798 132.249C188.71 137.658 188.71 137.658 189.613 138.124C183.433 135.526 177.546 132.294 171.355 129.711C171.614 129.823 198.372 141.699 218.387 155.57C215.29 153.586 212.224 151.56 209.127 149.576C214.856 154.031 221.172 157.723 226.313 162.939C212.952 154.427 200.553 144.437 186.481 137.03C181.256 134.618 176.188 131.867 170.82 129.756C179.919 134.604 198.796 144.7 205.935 149.215C202.915 147.935 202.915 147.935 188.854 141.559C202.757 149.786 202.757 149.786 204.952 151.536C203.492 150.757 201.568 149.678 200.171 148.794C200.79 150.172 201.663 151.421 202.743 152.475C201.371 151.79 200.048 151.009 198.785 150.137C198.414 152.419 198.26 153.362 203.335 158.48C198.558 157.197 195.846 152.647 191.366 150.887C195.426 155.623 201.074 158.476 205.449 162.84L203.324 162.634C203.244 165.221 203.244 165.221 209.722 171.397C207.038 171.218 207.038 171.218 203.072 168.765C204.472 170.938 206.698 172.34 208.322 174.307C207.783 174.244 207.783 174.244 186.838 158.967C198.127 162.805 198.127 162.805 198.628 162.876C198.722 162.199 198.852 161.302 198.946 160.625C195.097 156.1 157.245 134.534 156.73 145.829L159.53 188.668C159.73 189.453 164.496 207.923 171.611 204.614C173.928 203.535 174.061 200.65 176.013 199.265C187.006 214.338 189.616 217.938 190.586 218.033C192.441 214.037 192.441 214.037 194.869 213.245C193.469 209.715 191.615 205.007 190.222 201.474L192.035 200.071C190.754 190.873 180.426 184.9 182.908 174.363C179.587 169.515 179.586 169.515 178.138 166.02L180.006 164.874C189.238 169.82 187.051 176.631 186.117 179.537C195.461 193.944 197.974 197.814 205.309 192.458C206.765 192.763 208.567 193.765 209.76 194.659C207.254 197.113 203.727 196.317 200.812 197.463C201.435 202.767 207.415 204.159 209.022 208.747C208.168 210.332 208.164 210.332 208.164 210.332C207.233 209 206.095 207.826 204.794 206.854L202.586 207.299C202.698 210.759 205.081 215.011 206.572 218.131C205.89 219.429 205.585 220.893 205.694 222.355C204.184 221.841 202.731 221.173 201.358 220.361L199.338 221.202C196.857 227.564 184.01 224.462 182.271 220.15C180.521 215.776 179.821 211.061 177.98 206.707C176.349 208.46 176.349 208.46 180.72 224.171C171.383 229.464 172.671 244.457 160.129 246.816C157.805 250.672 152.429 248.569 149.931 252.074C153.826 259.684 169.032 263.109 163.425 273.772C156.538 275.147 149.238 271.722 142.564 275.578C141.864 280.019 143.022 286.076 143.537 290.546C142.62 291.727 141.605 293.592 141.462 295.078L144.447 296.656C144.59 298.521 144.727 300.4 144.856 302.264C149.231 302.401 151.471 309.514 156.549 306.566C160.661 304.178 166.116 305.244 169.686 301.451C174.831 295.976 174.677 287.801 179.485 282.171C179.303 279.967 178.992 277.937 178.67 275.918C195.023 271.75 195.023 271.75 195.436 271.361C222.733 294.959 219.902 296.827 207.66 298.755L216.598 305.114C215.86 299.856 222.81 294.984 217.837 289.596L219.64 288.194L221.449 289.305C220.697 285.312 216.168 284.173 214.88 280.587L212.885 281.316C207.986 277.607 204.399 271.378 202.705 267.996C203.652 266.933 204.934 266.226 206.338 265.994C219.955 279.003 219.955 279.003 222.541 280.587C225.69 294.321 236.189 304.01 236.294 304.056C236.909 302.716 237.151 301.235 236.994 299.769C239.997 300.452 239.997 300.452 241.82 300.07C240.07 298.791 237.449 296.852 234.016 291.012L236.116 290.574C236.56 289.184 236.56 287.69 236.116 286.301C246.538 289.301 243.161 303.691 253.169 307.035C254.267 305.864 255.09 304.461 255.577 302.93C259.469 308.125 260.522 307.403 264.435 304.722C271.651 308.336 266.209 326.69 262.548 327.507C251.458 329.978 243.65 317.849 232.452 320.724C231.829 322.403 231.829 322.403 231.685 328.639L229.607 330.017C222.471 328.197 203.359 317.141 203.216 317.047C203.216 300.123 203.216 300.123 181.287 304.059C156.045 308.588 156.045 308.588 155.698 308.441C153.518 310.194 152.052 312.584 150.221 314.652L149.521 315.301H149.493L116.782 365.144C121.227 374.283 121.227 374.283 116.831 390.611C113.538 402.831 139.512 423.853 139.778 424.056C142.067 425.809 145.311 428.515 148.177 428.704C149 428.76 150.036 428.21 150.83 428.003C155.992 426.629 178.32 422.065 178.372 422.065C185.83 422.065 191.646 427.793 199.048 427.989C198.698 437.258 193.553 446.294 197.739 455.777C201.494 464.288 200.917 469.574 199.664 477.492C198.225 486.607 190.607 492.667 188.042 501.221C186.246 507.211 188.941 513.437 187.093 519.428C184.395 528.17 184.465 537.617 180.388 546.013L181.277 547.93C199.576 543.724 199.576 543.724 206.824 537.919C218.145 528.84 250.919 492.916 252.641 490.732C260.561 480.654 258.464 467.113 264.473 456.379C271.707 443.445 284.74 434.997 291.336 421.571C295.865 412.359 296.722 407.251 296.719 401.054C291.025 406.196 288.12 406.564 284.446 407.013C284.26 405.484 283.973 403.455 283.704 401.941C307.428 379.439 323.099 364.573 306.728 354.267C306.514 352.146 306.231 349.314 306.028 347.193C305.643 351.337 305.328 354.607 299.903 355.753C298.21 348.522 293.884 342.058 293.706 334.37C294.265 333.894 295.018 333.259 295.581 332.786C299.158 336.915 299.455 342.829 303.217 346.86L305.447 345.809L306.028 343.66C308.127 349.026 308.127 349.026 317.926 351.442C318.997 355.112 319.123 359.048 321.059 362.47C320.605 364.065 320.517 365.743 320.803 367.377L322.346 365.779C322.346 366.042 322.465 392.662 319.284 414.353C321.902 408.864 323.249 397.878 325.293 381.224C325.776 374.839 326.019 368.393 326.021 361.884" fill="url(#paint0_radial_5_9)"/>
<path d="M164.874 230.467C164.899 232.71 164.363 234.936 164.703 237.187C164.808 237.888 165.728 238.512 166.169 239.083C167.121 239.938 166.519 240.447 164.419 240.597C154.043 241.337 150.858 242.08 146.484 244.804C150.221 238.845 150.627 238.494 151.054 238.144C149.955 236.678 147.905 235.998 147.555 233.937C147.362 232.847 149.119 233.667 149.773 233.169C150.123 232.9 149.92 232.272 149.773 231.813C149.378 230.628 149.007 229.506 149.378 228.57C149.84 227.403 151.681 228.325 151.943 226.909C152.041 226.401 150.417 223.126 150.403 223.095C150.116 222.562 149.238 220.936 145.633 221.612C145.228 221.128 144.884 220.596 144.608 220.028C143.621 218.219 144.258 216.042 143.289 214.226C142.939 213.592 142.851 213.402 141.448 213.062C139.806 212.663 139.642 212.011 139.407 210.216C138.536 203.517 138.97 202.431 142.988 201.26C144.545 203.135 144.037 205.221 143.54 206.627C143.166 207.65 143.191 207.881 143.498 208.193C145.248 209.995 147.52 204.972 148.723 207.177C149.192 208.029 149.073 208.93 148.643 211.604C148.153 214.629 147.768 217.017 151.019 215.769C154.365 221.36 154.365 221.36 155.569 222.247C157.689 223.8 159.558 225.479 160.979 230.337H164.857C164.857 230.383 164.857 230.446 164.857 230.491" fill="url(#paint1_radial_5_9)"/>
<path d="M142.561 223.049C142.512 223.975 142.088 224.686 141.252 226.106C142.889 230.73 142.043 232.921 141.952 233.155C141.769 233.572 141.517 233.955 141.206 234.288C140.314 235.153 138.938 234.989 138.022 235.802C137.241 236.503 137.374 237.691 136.587 238.375C136.49 238.448 136.373 238.49 136.252 238.495C136.13 238.5 136.01 238.468 135.908 238.403C135.635 238.287 133.661 237.001 133.311 236.124C133.15 235.732 133.413 235.245 133.71 234.68C135.568 231.203 135.537 228.882 135.53 228.865C135.46 228.532 135.309 228.535 134.728 228.865C133.958 229.317 132.163 230.379 131.285 226.909C130.935 225.58 132.069 225.219 132.545 225.065C133.888 224.627 135.418 225.163 136.664 224.248C136.741 222.66 135.089 221.658 135.236 220.042C135.362 218.671 136.636 218.562 137.192 218.513C139.46 218.629 142.683 221.03 142.571 223.035" fill="url(#paint2_radial_5_9)"/>
<path d="M108.285 167.839C108.583 169.62 108.369 171.478 108.142 171.807C107.792 172.305 107.127 171.933 106.742 172.33C105.692 173.437 105.101 174.906 104.019 176C103.286 176.696 102.429 177.248 101.493 177.626C100.233 178.142 99.0813 177.935 98.0629 177.752C95.9981 177.384 94.3708 175.716 92.1696 175.747C90.9657 175.765 89.8283 175.782 89.5868 175.495C89.5553 175.432 89.5329 175.365 89.5204 175.295C89.9998 174.352 91.9281 174.142 91.3751 172.775C91.0497 171.976 89.6428 171.089 87.5256 170.321C91.2247 170.24 90.6962 167.759 90.0698 167.257C89.5484 166.837 88.5685 166.907 87.6201 166.977C86.7347 167.057 85.7303 167.149 85.3908 166.837C84.8414 166.328 85.4783 164.6 87.0356 164.432C87.7842 164.383 88.5336 164.516 89.2194 164.821C88.1275 163.457 86.4757 161.4 89.1914 161.27C90.8817 162.553 91.1652 162.886 91.3577 164.639C91.3793 165.032 91.5315 165.408 91.7901 165.705C92.0488 166.002 92.3991 166.204 92.7855 166.279C93.0176 166.337 93.2619 166.322 93.4854 166.237C94.3358 165.827 94.8853 165 95.6902 164.555C96.6211 164.053 97.678 163.882 98.6403 163.454C98.9903 163.303 106.983 159.84 108.32 167.822" fill="url(#paint3_radial_5_9)"/>
<path d="M319.596 418.23C319.309 419.475 318.798 421.613 318.588 421.981C318.357 421.539 321.09 410.199 321.122 410.091C320.688 413.487 319.865 417.056 319.596 418.23Z" fill="url(#paint4_radial_5_9)"/>
<path d="M267.171 489.201C264.648 493.821 245.197 523.035 240.018 522.008C239.962 521.489 239.822 520.104 244.48 511.761C245.932 509.16 248.494 507.481 250.1 505.01C251.98 502.111 252.732 498.669 254.58 495.756C254.737 495.507 254.954 495.181 255.133 494.946C256.008 493.772 257.191 493.505 258.559 493.193C260.606 492.738 262.458 491.441 264.568 488.987C266.318 486.922 267.276 484.251 269.373 482.428C269.477 482.35 269.596 482.294 269.723 482.263C270.185 482.933 269.327 485.268 267.175 489.208" fill="url(#paint5_radial_5_9)"/>
<path d="M124.667 115.258C135.95 117.687 147.485 122.164 151.922 123.976C163.471 128.687 174.246 134.934 185.546 140.125C183.303 139.859 182.176 139.726 170.564 133.987C165.459 131.45 160.713 128.193 155.317 126.195C131.911 117.509 131.911 117.509 127.117 116.124C127.467 116.18 127.845 116.257 128.209 116.327C125.017 115.09 121.598 114.908 118.336 114.042C119.722 114.207 123.092 114.908 124.667 115.258Z" fill="url(#paint6_radial_5_9)"/>
<path d="M54.9686 469.209C54.6186 472.175 39.9832 508.82 39.8538 509.027C35.5772 516.329 18.9925 514.285 21.9462 525.345C24.263 534.017 15.5034 546.139 15.4124 546.255C13.5401 548.6 12.6127 549.241 8.91014 547.804C8.94864 548.586 8.99765 549.63 9.03615 550.412L11.3144 551.148C13.5226 555.593 13.4492 555.726 11.6119 559.112C10.0164 559.475 8.39212 559.696 6.75789 559.771L5.50151 561.794L6.58641 564.195L4.57413 565.457C4.57413 566.193 4.57411 567.175 4.5986 567.911C7.74826 568.808 7.74828 568.808 9.2881 575.125L7.04834 575.844L33.2955 598.776C28.6095 600.353 15.038 600.332 -9.71481 566.176C-9.23914 567.872 -8.56734 569.508 -7.71303 571.048C-10.0368 569.485 -10.5897 569.113 -19.6502 554.573C-30.6845 536.846 -25.7921 512.186 -44.319 497.719C-61.0192 484.651 -81.8104 468.421 -79.8017 455.212C-75.3501 425.893 -78.5488 420.614 -82.2514 414.504C-84.0012 415.1 -84.0012 415.1 -87.3223 419.142C-96.7153 409.474 -109.506 403.655 -117.517 392.42C-123.897 383.656 -137.153 384.971 -142.798 375.131C-142.886 374.98 -153.038 342.619 -154.417 328.099C-162.816 340.018 -149.99 349.643 -150.963 360.756C-154.952 355.147 -154.648 347.964 -157.861 342.079C-149.283 323.83 -163.002 305.665 -158.071 287.426C-156.569 281.87 -155.488 279.276 -152.877 273.001L-140.184 242.392C-141.783 236.496 -122.654 205.971 -112.957 194.06L-113.17 194.249C-109.974 190.664 -106.681 187.177 -103.291 183.789C-87.9079 168.373 -70.5987 155.015 -51.7942 144.048C-53.0226 144.784 -56.2877 146.737 -61.1312 150.007C-47.4652 142.761 -47.4652 142.761 -47.1887 142.646C-47.9131 143.214 -47.9131 143.214 -55.2378 148.419C-53.0016 147.241 -50.7968 146.007 -48.5501 144.844C-53.2955 151.648 -53.2955 151.648 -57.1906 154.112C-54.7409 154.75 -52.3996 155.353 -44.942 150.298L-46.7198 153.348C-46.2823 153.891 -45.7014 154.617 -45.2604 155.16C-39.1221 153.271 -35.283 147.799 -29.6416 145.121C-30.2751 146.26 -30.2751 146.26 -36.6164 152.58C-26.9294 147.865 -20.4796 138.464 -10.3517 134.387C-16.9135 139.764 -22.6004 146.106 -29.3127 151.325C-27.5903 150.451 -25.9247 149.468 -24.3257 148.384C-25.9215 150.789 -25.9215 150.789 -32.5288 156.724C-24.4797 155.455 -20.8366 147.41 -13.8759 144.455C-13.8759 145.363 -13.8759 146.558 -13.8759 147.483C-16.7525 150.34 -16.7525 150.34 -44.0985 167.464C-43.7486 168.074 -43.2516 168.891 -42.8912 169.504C-54.167 180.346 -71.6405 184.227 -77.8874 200.702L-75.4971 200.888C-75.4971 203.237 -75.4971 203.237 -79.4727 209.669C-77.8508 209.545 -76.2203 209.737 -74.6712 210.234C-70.5417 219.239 -70.5417 219.239 -66.8601 219.305C-67.9099 222.387 -69.3098 226.499 -70.3597 229.583C-69.9012 234.34 -69.8382 234.456 -68.1759 237.425C-62.8145 236.475 -52.2422 216.123 -52.1372 215.919C-48.7005 209.213 -49.194 203.819 -49.4565 200.92C-42.3592 195.409 -40.074 184.279 -29.0327 183.372C-27.3214 188.402 -27.3214 188.402 -24.9521 189.653C-26.072 192.833 -27.5699 197.078 -28.6932 200.261C-27.4004 201.221 -26.0296 202.071 -24.5952 202.802C-20.9766 201.014 -19.6957 196.959 -16.7001 194.582C-11.7411 202.728 -19.1708 216.456 -6.68414 220.872C-9.25636 229.184 -5.61327 238.445 -10.5897 246.388C-8.91341 247.156 -8.91339 247.156 -3.54498 246.648L-2.21513 249.743C-4.3604 254.742 -4.3604 254.742 -20.2802 255.723C-17.3615 250.63 -13.5784 243.77 -10.5197 238.757L-35.2655 241.992C-35.304 241.992 -39.4931 244.187 -51.5702 257.865C-40.5744 247.524 -38.0477 247.387 -33.8622 247.166C-33.4632 247.811 -32.9383 248.674 -32.5428 249.322C-33.6557 250.609 -35.752 251.734 -37.3373 252.347C-36.5184 254.535 -36.5184 254.535 -36.9873 260.466C-34.5551 261.518 -32.5883 263.372 -30.2156 264.539C-28.0388 263.186 -26.471 261.104 -24.3677 259.663C-24.1367 260.508 -23.8253 261.633 -23.5943 262.468C-26.646 267.091 -30.2226 269.247 -41.0049 272.949C-41.3549 269.051 -41.3549 269.051 -38.7546 264.571C-40.403 265.342 -41.9358 266.348 -43.6541 266.972L-43.6926 266.765L-44.3365 269.317C-58.0445 275.178 -68.0499 290.535 -68.1339 290.7C-92.2813 334.034 -92.2813 334.034 -90.15 351.533L-93.5551 350.755C-96.4948 344.68 -94.3181 337.893 -96.1939 331.671C-105.272 331.671 -105.272 331.671 -109.443 329.866C-110.542 330.865 -111.438 332.835 -111.634 334.307C-113.317 334.98 -113.317 334.98 -122.357 333.301C-140.321 365.278 -123.596 380.701 -118.136 378.205C-113.202 375.951 -112.355 363.546 -106.444 367.907C-107.169 374.483 -108.327 381.006 -108.936 387.6C-105.261 390.355 -100.579 388.515 -96.6873 390.289C-92.8692 411.672 -92.8692 411.672 -91.5569 413.189C-80.8865 411.538 -80.8865 411.538 -78.7063 414.027C-76.547 411.784 -76.547 411.784 -75.6511 405.569C-70.1742 406.003 -66.5311 401.846 -61.9326 400.083C-50.4539 407.321 -36.2734 408.948 -25.5366 417.697C-23.2303 419.573 -20.9871 421.553 -18.6528 423.373C-13.4034 427.446 -6.11021 425.28 -0.857285 429.3C3.54173 432.669 1.1165 439.816 6.49191 442.621L52.4664 459.962C53.4533 461.052 55.5005 463.32 54.9511 469.199" fill="url(#paint7_radial_5_9)"/>
<path d="M81.3487 113.73C81.4362 113.842 81.5342 114.007 81.6147 114.122C80.2918 114.396 80.1238 114.431 79.6864 115.139C80.7818 116.369 82.5176 116.769 83.536 118.115C84.6908 119.654 84.9358 121.589 85.7967 123.268L84.9358 124.123C84.9673 125.133 85.6637 126.086 85.1843 127.138C84.0049 127.569 83.3575 127.807 85.0828 130.864C85.1353 130.955 89.3803 140.876 86.2482 144.921C84.3129 147.42 78.899 153.159 70.5594 152.433C68.8446 152.282 68.3091 152.342 67.9417 152.717C66.8533 153.828 67.4832 155.521 66.6398 156.692C66.0169 157.575 65.212 158.301 61.8244 161.358C61.4324 161.708 60.9355 162.209 60.5295 162.546C58.8742 163.91 58.1883 164.474 54.7761 165.995C47.5389 169.22 46.3491 170.829 46.4435 174.026C46.5065 176.2 46.405 176.392 46.0306 177.107C45.6561 177.823 44.6308 178.355 43.4374 179.032C42.3595 179.638 41.9256 180.161 40.9457 184.006C39.3323 190.316 38.4434 193.783 35.4443 194.967C33.8869 195.581 29.5824 193.881 30.1948 190.789C30.2508 190.491 30.2858 189.941 30.0233 189.797C28.1021 188.745 26.1738 190.715 24.256 189.797C24.0662 189.71 23.9119 189.56 23.8185 189.373C23.7625 189.201 19.2025 169.68 23.584 159.43C26.8947 151.69 29.152 151.111 30.6428 150.729C32.6411 150.218 35.7312 146.873 36.0357 144.283C32.1371 140.29 32.1371 140.29 32.3856 139.494C34.3664 139.267 35.3428 141.748 37.3865 141.342C38.6429 138.99 37.7365 136.294 38.5589 133.875C36.4591 133.952 35.9937 136.091 34.5693 137.03C34.3734 136.382 34.3734 136.382 48.9598 117.694C47.4969 115.903 45.6841 116.744 44.2248 117.417C45.1662 115.626 56.0745 110 74.542 110C74.5805 110 80.9742 113.302 81.3487 113.73Z" fill="url(#paint8_radial_5_9)"/>
<path style="mix-blend-mode:multiply" d="M252.337 540.056C350.554 441.676 350.554 282.172 252.337 183.793C154.12 85.4136 -5.12092 85.4136 -103.338 183.793C-201.555 282.172 -201.555 441.676 -103.338 540.056C-5.12092 638.435 154.12 638.435 252.337 540.056Z" fill="url(#paint9_radial_5_9)"/>
<path style="mix-blend-mode:overlay" opacity="0.77" d="M252.339 540.215C350.556 441.836 350.556 282.332 252.339 183.953C154.122 85.5733 -5.11914 85.5733 -103.336 183.953C-201.553 282.332 -201.553 441.836 -103.336 540.215C-5.11914 638.595 154.122 638.595 252.339 540.215Z" fill="url(#paint10_radial_5_9)"/>
</g>
<defs>
<radialGradient id="paint0_radial_5_9" cx="0" cy="0" r="1" gradientUnits="userSpaceOnUse" gradientTransform="translate(60.288 134.909) scale(453.736 454.486)">
<stop offset="0.38" stop-color="#F5F5F5"/>
<stop offset="0.53" stop-color="#F0F0F0"/>
<stop offset="0.71" stop-color="#E2E2E2"/>
<stop offset="0.9" stop-color="#CBCBCB"/>
<stop offset="0.99" stop-color="#BDBDBD"/>
</radialGradient>
<radialGradient id="paint1_radial_5_9" cx="0" cy="0" r="1" gradientUnits="userSpaceOnUse" gradientTransform="translate(18836.7 3295.51) scale(35753.5 56456.7)">
<stop offset="0.38" stop-color="#F5F5F5"/>
<stop offset="0.53" stop-color="#F0F0F0"/>
<stop offset="0.71" stop-color="#E2E2E2"/>
<stop offset="0.9" stop-color="#CBCBCB"/>
<stop offset="0.99" stop-color="#BDBDBD"/>
</radialGradient>
<radialGradient id="paint2_radial_5_9" cx="0" cy="0" r="1" gradientUnits="userSpaceOnUse" gradientTransform="translate(7830.39 1638.44) scale(14722.2 25907.3)">
<stop offset="0.38" stop-color="#F5F5F5"/>
<stop offset="0.53" stop-color="#F0F0F0"/>
<stop offset="0.71" stop-color="#E2E2E2"/>
<stop offset="0.9" stop-color="#CBCBCB"/>
<stop offset="0.99" stop-color="#BDBDBD"/>
</radialGradient>
<radialGradient id="paint3_radial_5_9" cx="0" cy="0" r="1" gradientUnits="userSpaceOnUse" gradientTransform="translate(15839.2 1346.68) scale(30124.4 21628.4)">
<stop offset="0.38" stop-color="#F5F5F5"/>
<stop offset="0.53" stop-color="#F0F0F0"/>
<stop offset="0.71" stop-color="#E2E2E2"/>
<stop offset="0.9" stop-color="#CBCBCB"/>
<stop offset="0.99" stop-color="#BDBDBD"/>
</radialGradient>
<radialGradient id="paint4_radial_5_9" cx="0" cy="0" r="1" gradientUnits="userSpaceOnUse" gradientTransform="translate(2045.88 1254.9) scale(3303.1 15416.4)">
<stop offset="0.38" stop-color="#F5F5F5"/>
<stop offset="0.53" stop-color="#F0F0F0"/>
<stop offset="0.71" stop-color="#E2E2E2"/>
<stop offset="0.9" stop-color="#CBCBCB"/>
<stop offset="0.99" stop-color="#BDBDBD"/>
</radialGradient>
<radialGradient id="paint5_radial_5_9" cx="0" cy="0" r="1" gradientUnits="userSpaceOnUse" gradientTransform="translate(20473.9 3308.38) scale(38690.6 51564)">
<stop offset="0.38" stop-color="#F5F5F5"/>
<stop offset="0.53" stop-color="#F0F0F0"/>
<stop offset="0.71" stop-color="#E2E2E2"/>
<stop offset="0.9" stop-color="#CBCBCB"/>
<stop offset="0.99" stop-color="#BDBDBD"/>
</radialGradient>
<radialGradient id="paint6_radial_5_9" cx="0" cy="0" r="1" gradientUnits="userSpaceOnUse" gradientTransform="translate(45689.5 1967.55) scale(87140 33818.3)">
<stop offset="0.38" stop-color="#F5F5F5"/>
<stop offset="0.53" stop-color="#F0F0F0"/>
<stop offset="0.71" stop-color="#E2E2E2"/>
<stop offset="0.9" stop-color="#CBCBCB"/>
<stop offset="0.99" stop-color="#BDBDBD"/>
</radialGradient>
<radialGradient id="paint7_radial_5_9" cx="0" cy="0" r="1" gradientUnits="userSpaceOnUse" gradientTransform="translate(145088 33169.9) scale(277738 602751)">
<stop offset="0.38" stop-color="#F5F5F5"/>
<stop offset="0.53" stop-color="#F0F0F0"/>
<stop offset="0.71" stop-color="#E2E2E2"/>
<stop offset="0.9" stop-color="#CBCBCB"/>
<stop offset="0.99" stop-color="#BDBDBD"/>
</radialGradient>
<radialGradient id="paint8_radial_5_9" cx="0" cy="0" r="1" gradientUnits="userSpaceOnUse" gradientTransform="translate(44579.6 6156.62) scale(85202.4 110324)">
<stop offset="0.38" stop-color="#F5F5F5"/>
<stop offset="0.53" stop-color="#F0F0F0"/>
<stop offset="0.71" stop-color="#E2E2E2"/>
<stop offset="0.9" stop-color="#CBCBCB"/>
<stop offset="0.99" stop-color="#BDBDBD"/>
</radialGradient>
<radialGradient id="paint9_radial_5_9" cx="0" cy="0" r="1" gradientUnits="userSpaceOnUse" gradientTransform="translate(74.4982 97.7437) scale(519.497 520.356)">
<stop offset="0.17" stop-color="white" stop-opacity="0"/>
<stop offset="0.52" stop-color="#CAC9C9" stop-opacity="0.12"/>
<stop offset="0.89" stop-color="#2C2829" stop-opacity="0.48"/>
<stop offset="0.91" stop-color="#231F20" stop-opacity="0.5"/>
</radialGradient>
<radialGradient id="paint10_radial_5_9" cx="0" cy="0" r="1" gradientUnits="userSpaceOnUse" gradientTransform="translate(76.0013 201.146) scale(241.806 242.206)">
<stop stop-color="white"/>
<stop offset="0.12" stop-color="#FCFBFB" stop-opacity="0.98"/>
<stop offset="0.25" stop-color="#F1F1F1" stop-opacity="0.94"/>
<stop offset="0.38" stop-color="#E0DFDF" stop-opacity="0.86"/>
<stop offset="0.5" stop-color="#C7C6C6" stop-opacity="0.75"/>
<stop offset="0.63" stop-color="#A8A6A7" stop-opacity="0.6"/>
<stop offset="0.76" stop-color="#817F7F" stop-opacity="0.43"/>
<stop offset="0.88" stop-color="#545152" stop-opacity="0.22"/>
<stop offset="1" stop-color="#231F20" stop-opacity="0"/>
</radialGradient>
<clipPath id="clip0_5_9">
<rect width="503" height="504" fill="white" transform="translate(-177 110)"/>
</clipPath>
</defs>
</svg>
