<svg width="40" height="40" viewBox="0 0 40 40" fill="none" xmlns="http://www.w3.org/2000/svg">
<path d="M20 0C8.954 0 0 8.954 0 20C0 31.046 8.954 40 20 40C31.046 40 40 31.046 40 20C40 8.954 31.046 0 20 0ZM16 28C11.582 28 8 24.418 8 20C8 15.582 11.582 12 16 12C18.084 12 19.964 12.816 21.388 14.122L19.202 16.19C18.334 15.458 17.226 15 16 15C13.238 15 11 17.238 11 20C11 22.762 13.238 25 16 25C18.418 25 20.436 23.282 20.9 21H16V18H23.718C23.884 18.642 24 19.306 24 20C24 24.418 20.418 28 16 28ZM32 20V23H30V20H27V18H30V15H32V18H35V20H32Z" fill="black"/>
</svg>
