<svg width="40" height="40" viewBox="0 0 40 40" fill="none" xmlns="http://www.w3.org/2000/svg">
<path d="M34.1557 5.856C30.3835 2.082 25.3673 0.002 20.023 0C9.01045 0 0.0480025 8.958 0.0440023 19.97C0.0420022 23.49 0.962048 26.926 2.71013 29.954L0 40L10.4665 37.526C13.3847 39.118 16.6688 39.956 20.013 39.958H20.021C31.0315 39.958 39.994 30.998 40 19.988C40.004 14.65 37.9279 9.632 34.1557 5.856ZM29.7975 27.108C29.3815 28.274 27.3434 29.398 26.4273 29.48C25.5113 29.564 24.6532 29.894 20.437 28.232C15.3628 26.232 12.1586 21.03 11.9106 20.698C11.6606 20.364 9.87249 17.992 9.87249 15.536C9.87249 13.08 11.1626 11.872 11.6206 11.374C12.0786 10.874 12.6186 10.75 12.9526 10.75C13.2847 10.75 13.6187 10.75 13.9087 10.762C14.2647 10.776 14.6587 10.794 15.0327 11.624C15.4768 12.612 16.4468 15.08 16.5708 15.33C16.6948 15.58 16.7788 15.872 16.6128 16.204C16.4468 16.536 16.3628 16.744 16.1148 17.036C15.8648 17.328 15.5908 17.686 15.3668 17.91C15.1168 18.158 14.8567 18.43 15.1468 18.928C15.4388 19.428 16.4388 21.062 17.9229 22.384C19.831 24.084 21.4371 24.61 21.9371 24.862C22.4371 25.112 22.7271 25.07 23.0191 24.736C23.3112 24.404 24.2672 23.28 24.5992 22.78C24.9312 22.28 25.2653 22.364 25.7233 22.53C26.1813 22.696 28.6354 23.904 29.1335 24.154C29.6335 24.404 29.9655 24.528 30.0895 24.736C30.2135 24.942 30.2135 25.942 29.7975 27.108Z" fill="black"/>
</svg>
